<?xml version="1.0" encoding="iso-8859-1"?>
<!-- Generator: Adobe Illustrator 19.0.0, SVG Export Plug-In . SVG Version: 6.00 Build 0)  -->
<svg version="1.1" id="Layer_1" xmlns="http://www.w3.org/2000/svg" xmlns:xlink="http://www.w3.org/1999/xlink" x="0px" y="0px"
	 viewBox="0 0 512 512" style="enable-background:new 0 0 512 512;" xml:space="preserve">
<g transform="translate(1 1)">
	<g>
		<g>
			<path d="M365.933,289.133C446.147,289.133,511,224.28,511,144.067S446.147-1,365.933-1C306.05-1,254.734,35.149,232.565,86.846
				c-7.028-1.555-14.057-2.513-21.085-2.513c-61.44,0-110.933,53.76-110.933,119.467v172.462
				c-20.05,5.328-39.782,12.761-58.88,22.098c-6.827,3.413-13.653,6.827-20.48,10.24C7.533,415.427-1,429.08-1,444.44v58.027
				c0,5.12,3.413,8.533,8.533,8.533h204.8h0.853h203.947c2.56,0,6.827-0.853,8.533-2.56c1.707-1.707,2.56-3.413,2.56-5.973V444.44
				c0-15.36-8.533-29.013-22.187-35.84c-6.827-3.413-13.653-6.827-20.48-10.24c-21.086-10.085-42.421-17.929-64-23.317v-92.812
				C335.543,286.708,350.45,289.133,365.933,289.133z M128.707,395.8l53.76,78.507l-69.973-43.52L128.707,395.8z M312.173,430.787
				L242.2,473.453l53.76-77.653L312.173,430.787z M212.333,487.448l-70.352-102.01c6.444-0.831,12.837-1.47,19.152-1.924v8.019
				c0,5.12,3.413,8.533,8.533,8.533s8.533-3.413,8.533-8.533v-17.067v-0.853v-24.747c21.333,11.947,46.933,11.947,68.267,0v24.747
				v0.853v17.067c0,5.12,3.413,8.533,8.533,8.533s8.533-3.413,8.533-8.533v-8.019c6.315,0.454,12.708,1.093,19.152,1.924
				L212.333,487.448z M212.333,340.333c-7.21,0-14.119-1.444-20.587-4.141c-5.338-2.302-10.474-5.469-15.253-9.513
				c-0.638-0.638-1.33-1.17-2.061-1.583c-18.451-16.575-30.366-45.217-30.366-78.63v-35.84c11.093-2.56,18.773-9.387,24.747-20.48
				c5.973,12.8,15.36,22.187,34.987,22.187h34.07c1.292,2.423,2.645,4.808,4.069,7.146c9.874,16.45,22.859,30.282,37.808,41.494
				C274.627,307.053,247.32,340.333,212.333,340.333z M365.933,16.067c70.827,0,128,57.173,128,128s-57.173,128-128,128
				c-25.815,0-49.812-7.602-69.893-20.686c-0.519-0.557-1.124-1.058-1.787-1.501c-17.92-12.8-33.28-29.867-42.667-49.493
				c-0.576-1.151-1.257-2.091-2.026-2.854c-7.463-16.261-11.627-34.365-11.627-53.466C237.933,73.24,295.107,16.067,365.933,16.067z
				 M118.467,203.8c0-56.32,41.813-102.4,93.867-102.4c5.082,0,9.326,0.841,14.395,1.688c-0.4,1.365-0.784,2.736-1.145,4.117
				c-2.998,10.533-4.407,21.986-4.667,33.047c-0.001,0.05-0.002,0.099-0.004,0.149c-0.028,1.227-0.046,2.45-0.046,3.665
				c0,1.608,0.036,3.207,0.087,4.803c0.013,0.393,0.029,0.785,0.045,1.177c0.059,1.464,0.137,2.922,0.239,4.375
				c0.009,0.127,0.015,0.254,0.024,0.38c0.123,1.689,0.279,3.37,0.459,5.042c0.012,0.114,0.026,0.227,0.039,0.341
				c1.346,12.219,4.205,23.975,8.386,35.082h-25.492c-17.067,0-20.48-9.387-25.6-34.987v-0.853
				c-0.853-4.267-4.267-6.827-8.533-6.827s-7.68,2.56-8.533,6.827c-5.12,29.867-17.92,34.987-27.307,35.84
				c-4.267,0.853-7.68,4.267-7.68,8.533v42.667c0,37.796,13.149,70.084,34.133,89.921v30.399c-10.727,0-21.98,1.582-33.346,3.5
				c-0.526-0.052-1.066-0.087-1.64-0.087c-0.517,0.172-1.033,0.389-1.543,0.631c-2.044,0.354-4.091,0.714-6.137,1.075V203.8z
				 M16.067,444.44c0-8.533,5.12-17.067,12.8-21.333c5.973-3.413,12.8-6.827,19.627-10.24c19.337-9.668,39.088-17.047,59.049-22.16
				c1.366,0.387,2.732,0.429,4.097-0.027c0.218-0.047,0.435-0.088,0.653-0.135L93.72,430.787c-1.707,4.267,0,8.533,3.413,11.093
				l84.587,52.053h-63.253v-17.067c0-5.12-3.413-8.533-8.533-8.533s-8.533,3.413-8.533,8.533v17.067H16.067V444.44z M395.8,423.107
				c7.68,4.267,12.8,12.8,12.8,21.333v49.493h-85.333v-17.067c0-5.12-3.413-8.533-8.533-8.533s-8.533,3.413-8.533,8.533v17.067
				h-63.253l84.587-52.053c3.413-2.56,5.12-6.827,3.413-11.093l-18.573-40.242c0.218,0.047,0.435,0.088,0.653,0.135
				c0,0,0.853,0,1.707,0c0.667,0,1.331-0.004,1.896-0.106c20.13,5.117,40.048,12.544,59.544,22.292
				C382.147,416.28,388.973,419.693,395.8,423.107z M306.2,371.053c-13.907-2.454-27.805-4.115-40.96-5.001v-31.306
				c15.377-15.25,26.428-37.322,30.791-63.501c3.314,1.823,6.703,3.526,10.169,5.091V371.053z"/>
			<path d="M293.4,148.333l67.413,67.413c5.12,5.973,11.093,10.24,17.067,13.653c10.24,5.973,20.48,8.533,29.867,8.533
				c13.653,0,26.453-5.973,37.547-16.213l8.533-8.533c5.973-6.827,7.68-17.067,3.413-25.6
				c-6.827-13.653-29.867-27.307-32.427-29.013c-5.12-3.413-11.093-4.267-16.213-2.56c-4.267,0.853-6.827,3.413-9.387,6.827
				s-5.973,7.68-6.827,8.533c-5.12,3.413-8.533,3.413-13.653-1.707l-37.547-37.547c-5.12-5.12-5.12-8.533-1.707-13.653
				c0.853-0.853,5.12-5.12,8.533-7.68s5.973-5.12,6.827-9.387c1.707-5.12,0.853-11.093-2.56-16.213
				c-1.707-2.56-15.36-25.6-29.013-32.427c-8.533-5.12-18.773-3.413-25.6,3.413l-8.533,8.533
				C271.213,82.627,267.8,103.96,278.04,127C281.453,134.68,286.573,141.507,293.4,148.333z M300.227,77.507l8.533-8.533
				c0.853-0.853,2.56-1.707,3.413-1.707s1.707,0,2.56,0.853c7.68,3.413,17.067,17.92,22.187,25.6c0.853,1.707,0.853,2.56,0.853,2.56
				l-0.853,0.853c-10.24,8.533-11.093,10.24-11.947,11.093c-8.533,12.8-6.827,25.6,3.413,35.84l36.693,37.547
				c11.093,10.24,23.893,11.947,35.84,3.413c0.853-0.853,2.56-1.707,11.093-11.947l0.853-0.853c0.853,0,1.707,0,3.413,0.853
				c7.68,5.12,22.187,15.36,25.6,22.187c0.853,1.707,0.853,3.413-0.853,5.12l-8.533,8.533
				c-14.507,13.653-29.013,16.213-46.933,5.973c-5.12-2.56-9.387-5.973-13.653-10.24l-67.413-67.413
				c-5.12-5.973-9.387-11.093-11.947-17.067C284.867,103.96,287.427,90.307,300.227,77.507z"/>
		</g>
	</g>
</g>
<g>
</g>
<g>
</g>
<g>
</g>
<g>
</g>
<g>
</g>
<g>
</g>
<g>
</g>
<g>
</g>
<g>
</g>
<g>
</g>
<g>
</g>
<g>
</g>
<g>
</g>
<g>
</g>
<g>
</g>
</svg>
